<svg width="23" height="20" viewBox="0 0 23 20" fill="none" xmlns="http://www.w3.org/2000/svg">
<path id="Vector" d="M12.803 0.532945C13.1111 0.1917 13.5289 0 13.9645 0C14.4001 0 14.8179 0.1917 15.126 0.532945L22.519 8.72407C22.827 9.06542 23 9.52832 23 10.011C23 10.4937 22.827 10.9566 22.519 11.2979L15.126 19.489C14.8162 19.8206 14.4012 20.0041 13.9704 19.9999C13.5397 19.9958 13.1276 19.8043 12.823 19.4669C12.5184 19.1294 12.3456 18.6728 12.3419 18.1956C12.3381 17.7183 12.5037 17.2585 12.803 16.9152L17.2503 11.8312H1.64288C1.20716 11.8312 0.789289 11.6395 0.481189 11.2981C0.173089 10.9567 0 10.4937 0 10.011C0 9.52823 0.173089 9.06524 0.481189 8.72388C0.789289 8.38251 1.20716 8.19074 1.64288 8.19074H17.2503L12.803 3.10678C12.495 2.76543 12.322 2.30253 12.322 1.81986C12.322 1.3372 12.495 0.874292 12.803 0.532945Z" fill="white"/>
</svg>
