<?xml version="1.0" encoding="UTF-8"?>
<svg id="Calque_1" data-name="Calque 1" xmlns="http://www.w3.org/2000/svg" viewBox="0 0 243 87">
  <defs>
    <style>
      .cls-1 {
        fill: #fff;
        stroke-width: 0px;
      }
    </style>
  </defs>
  <g id="Logo_Telma" data-name="Logo Telma">
    <path id="Vector_2" data-name="Vector 2" class="cls-1" d="m78.76,25.48h-30.46l-1.74,8.09h10.3l-5.95,29.29h9.82l5.95-29.29h10.41l1.67-8.09Z"/>
    <path id="Vector_3" data-name="Vector 3" class="cls-1" d="m86.52,34.78c-2.4-.01-4.78.46-6.97,1.39-2.18.93-4.12,2.29-5.67,3.99-2.92,3.25-4.51,7.33-4.5,11.55,0,7.43,4.68,11.69,12.95,11.69,2.38,0,6.97-.27,10.86-2.11l.44-.21-.72-6.99-.94.42c-2.37,1.07-4.97,1.61-7.61,1.59-2.22,0-3.9-.6-4.85-1.75-.33-.48-.55-1.02-.65-1.58h.83c5.57,0,9.68-.72,12.58-2.11,1.49-.67,2.75-1.72,3.6-3.03.86-1.31,1.28-2.83,1.23-4.36,0-5.08-4.25-8.48-10.6-8.48Zm-1.01,6.97c1.46,0,2.34.59,2.34,1.57,0,.56-.2,1.27-1.8,1.8-2.02.54-4.13.78-6.23.72.36-1.15,1.1-2.17,2.12-2.9,1.02-.73,2.28-1.15,3.57-1.18Z"/>
    <path id="Vector_4" data-name="Vector 4" class="cls-1" d="m98.84,62.86h9.82l8.14-39.3h-9.82l-8.14,39.3Z"/>
    <path id="Vector_5" data-name="Vector 5" class="cls-1" d="m153.48,34.78c-1.79,0-3.55.37-5.16,1.07-1.62.7-3.04,1.72-4.19,2.99-.34-.86-.89-1.64-1.61-2.27-1.5-1.22-3.46-1.86-5.46-1.78-1.64-.02-3.27.28-4.78.87-1.51.59-2.88,1.47-4,2.57l.35-2.88h-8.6l-.09.58c-.3,1.94-.78,4.93-1.44,8.47l-3.69,18.44h9.53l2.42-12.31c.83-4.06,3.33-8.27,6.11-8.27.53,0,1.92,0,1.92,2.53-.03.97-.16,1.93-.39,2.88l-3.05,15.18h9.53l2.45-12.39c.99-4.73,3.46-8.17,5.88-8.17,1.4,0,2.1.82,2.1,2.42-.02,1.04-.15,2.07-.39,3.08l-2.99,15.1h9.51l3.18-15.78c.31-1.53.49-3.07.53-4.62,0-4.83-2.86-7.71-7.66-7.71Z"/>
    <path id="Vector_6" data-name="Vector 6" class="cls-1" d="m196.44,36.28l-.62-.19c-3.1-.85-6.32-1.29-9.56-1.32-14.45,0-21.04,9.8-21.04,18.9-.11,2.55.8,5.06,2.55,7.03.84.88,1.87,1.59,3.03,2.06,1.16.47,2.43.7,3.7.67,1.7,0,3.38-.37,4.9-1.09,1.52-.72,2.83-1.76,3.82-3.04-.09,1-.16,1.95-.19,2.88v.72h9.2v-.72c-.04-3.9.3-7.79,1.04-11.63l3.17-14.28Zm-18.55,9.05c1.69-2.16,3.85-3.37,6.08-3.37.46,0,.93.03,1.39.09l-1.18,5.36c-.84,4.22-3.05,8.48-6.11,8.48-2.34,0-2.68-2.29-2.68-3.65.06-2.48.93-4.89,2.5-6.91Z"/>
  </g>
</svg>