<svg width="23" height="20" viewBox="0 0 23 20" fill="none" xmlns="http://www.w3.org/2000/svg">
<path id="Vector" d="M10.197 0.532945C9.88893 0.1917 9.47113 0 9.0355 0C8.59987 0 8.18207 0.1917 7.87398 0.532945L0.481014 8.72407C0.173021 9.06542 0 9.52832 0 10.011C0 10.4937 0.173021 10.9566 0.481014 11.2979L7.87398 19.489C8.18384 19.8206 8.59883 20.0041 9.02959 19.9999C9.46035 19.9958 9.8724 19.8043 10.177 19.4669C10.4816 19.1294 10.6544 18.6728 10.6581 18.1956C10.6619 17.7183 10.4963 17.2585 10.197 16.9152L5.74974 11.8312H21.3571C21.7928 11.8312 22.2107 11.6395 22.5188 11.2981C22.8269 10.9567 23 10.4937 23 10.011C23 9.52823 22.8269 9.06524 22.5188 8.72388C22.2107 8.38251 21.7928 8.19074 21.3571 8.19074H5.74974L10.197 3.10678C10.505 2.76543 10.678 2.30253 10.678 1.81986C10.678 1.3372 10.505 0.874292 10.197 0.532945Z" fill="#D9D9D9"/>
</svg>
