<svg width="243" height="87" viewBox="0 0 243 87" fill="none" xmlns="http://www.w3.org/2000/svg">
<g id="Logo Telma">
<path id="Vector" d="M242.732 0C228.79 23.3491 204.689 45.9017 173.159 62.6032C106.931 97.6973 33.0817 93.7394 8.21075 53.7746C-1.5292 38.1146 -2.31264 19.2564 4.32008 0H242.732Z" fill="url(#paint0_linear_4_39)"/>
<path id="Vector_2" d="M61.2944 21.2477H35.3412L33.8607 28.1403H42.6379L37.5654 53.0946H45.931L51.0034 28.1403H59.8736L61.2944 21.2477Z" fill="#008049"/>
<path id="Vector_3" d="M67.9072 29.1696C65.8581 29.1592 63.8314 29.5642 61.9705 30.3564C60.1096 31.148 58.46 32.3078 57.1383 33.7524C54.6513 36.5175 53.2934 39.9993 53.3007 43.592C53.3007 49.921 57.2843 53.5541 64.3353 53.5541C66.367 53.5541 70.2708 53.3213 73.5905 51.759L73.9689 51.5813L73.3515 45.6261L72.5548 45.9876C70.5384 46.898 68.3195 47.3618 66.0748 47.3416C64.1826 47.3416 62.7551 46.827 61.9451 45.8467C61.6647 45.4368 61.4772 44.9779 61.3941 44.4988H62.1045C66.8516 44.4988 70.3505 43.8861 72.8203 42.6975C74.0938 42.129 75.1607 41.2308 75.8917 40.1126C76.6227 38.9945 76.9858 37.7042 76.9367 36.3992C76.9367 32.0737 73.3183 29.1696 67.9072 29.1696ZM67.0507 35.1065C68.2923 35.1065 69.0425 35.6089 69.0425 36.4421C69.0425 36.92 68.8699 37.5265 67.5089 37.9738C65.7835 38.4308 63.9917 38.6373 62.1974 38.5865C62.5005 37.6056 63.1344 36.7399 64.0071 36.1137C64.8799 35.4882 65.946 35.1353 67.0507 35.1065Z" fill="#008049"/>
<path id="Vector_4" d="M78.404 53.0952H86.7696L93.7077 19.6064H85.3421L78.404 53.0952Z" fill="#008049"/>
<path id="Vector_5" d="M124.959 29.1696C123.438 29.1721 121.936 29.4827 120.559 30.0801C119.182 30.6768 117.965 31.5456 116.992 32.6251C116.705 31.8893 116.234 31.2258 115.618 30.6891C114.337 29.6512 112.673 29.1071 110.97 29.1696C109.57 29.1549 108.182 29.4074 106.893 29.911C105.605 30.4152 104.443 31.1596 103.481 32.0982L103.78 29.6475H96.4564L96.3834 30.1438C96.1311 31.798 95.7194 34.3406 95.1551 37.3611L92.0147 53.0701H100.135L102.193 42.5811C102.897 39.1195 105.034 35.5353 107.398 35.5353C107.85 35.5353 109.038 35.5353 109.038 37.692C109.011 38.5166 108.901 39.3376 108.706 40.1427L106.103 53.0763H114.223L116.308 42.5199C117.151 38.4884 119.256 35.5599 121.314 35.5599C122.503 35.5599 123.1 36.2583 123.1 37.6246C123.08 38.5087 122.969 39.3885 122.768 40.2529L120.219 53.1191H128.325L131.034 39.677C131.301 38.3775 131.452 37.0597 131.486 35.7375C131.492 31.6203 129.049 29.1696 124.959 29.1696Z" fill="#008049"/>
<path id="Vector_6" d="M161.568 30.4513L161.037 30.292C158.392 29.5685 155.649 29.1911 152.891 29.1708C140.581 29.1708 134.965 37.5216 134.965 45.2781C134.872 47.4537 135.646 49.5858 137.142 51.2701C137.854 52.0237 138.737 52.6235 139.728 53.026C140.72 53.4285 141.796 53.624 142.879 53.5982C144.331 53.5988 145.762 53.2796 147.054 52.6682C148.346 52.0567 149.462 51.1702 150.308 50.0815C150.228 50.9331 150.169 51.7418 150.142 52.5322V53.1448H157.983V52.5322C157.945 49.2096 158.241 45.8914 158.866 42.6191L161.568 30.4513ZM145.76 38.1649C147.201 36.3269 149.04 35.2915 150.939 35.2915C151.335 35.2927 151.729 35.3197 152.121 35.3711L151.118 39.9356C150.401 43.532 148.515 47.1651 145.913 47.1651C143.921 47.1651 143.629 45.2107 143.629 44.0527C143.681 41.9372 144.424 39.8847 145.76 38.1649Z" fill="#008049"/>
</g>
<defs>
<linearGradient id="paint0_linear_4_39" x1="183.94" y1="56.5224" x2="-16.9925" y2="-54.6498" gradientUnits="userSpaceOnUse">
<stop offset="0.25" stop-color="#FCD800"/>
<stop offset="0.96" stop-color="#FDC708"/>
</linearGradient>
</defs>
</svg>
